<?xml version="1.0" encoding="UTF-8"?><svg id="Layer_5" xmlns="http://www.w3.org/2000/svg" viewBox="0 0 80 80"><defs><style>.cls-1{fill:#fff;}</style></defs><path class="cls-1" d="m11.56,38c.27-4.84,1.43-9.63,3.49-14.03,3.22-6.88,8.61-12.68,15.11-16.6C41.18.74,58.9.16,65.39,13.42c1.96,4,2.34,8.71,1.23,13.01-.54,2.08-1.42,4.07-2.67,5.81-2.98,4.15-4.55,8.5-3.06,13.64.89,3.06,2.49,5.85,3.81,8.74s2.37,6.04,2.04,9.21c-.4,3.93-2.95,7.44-6.26,9.59s-7.31,3.06-11.26,3.22c-7.78.31-15.48-1.16-21.97-5.59-5.61-3.83-9.98-9.36-12.65-15.6-2.35-5.48-3.37-11.51-3.04-17.46Z"/></svg>