<svg xmlns="http://www.w3.org/2000/svg" xmlns:xlink="http://www.w3.org/1999/xlink" viewBox="0 0 59 59"><path d="M 58.847 30.613 C 58.847 26.242 56.426 22.452 52.905 20.654 C 53.331 19.45 53.563 18.15 53.563 16.781 C 53.563 10.667 48.833 5.721 43.001 5.721 C 41.701 5.721 40.456 5.953 39.305 6.412 C 37.596 2.714 33.978 0.182 29.801 0.182 C 25.624 0.182 22.011 2.719 20.292 6.407 C 19.144 5.95 17.897 5.715 16.597 5.715 C 10.76 5.715 6.035 10.667 6.035 16.781 C 6.035 18.147 6.265 19.448 6.69 20.654 C 3.172 22.452 0.752 26.237 0.752 30.613 C 0.752 34.749 2.915 38.354 6.124 40.257 C 6.069 40.727 6.035 41.197 6.035 41.679 C 6.035 47.793 10.76 52.745 16.597 52.745 C 17.897 52.745 19.142 52.507 20.289 52.053 C 22.005 55.743 25.618 58.277 29.798 58.277 C 33.98 58.277 37.593 55.743 39.305 52.053 C 40.453 52.504 41.698 52.739 43.001 52.739 C 48.838 52.739 53.563 47.787 53.563 41.673 C 53.563 41.192 53.53 40.722 53.472 40.254 C 56.676 38.354 58.847 34.749 58.847 30.616 Z M 40.545 21.39 L 28.556 39.372 C 28.155 39.972 27.498 40.296 26.827 40.296 C 26.432 40.296 26.03 40.185 25.676 39.947 L 25.358 39.687 L 18.677 33.006 C 17.866 32.196 17.866 30.881 18.677 30.074 C 19.488 29.266 20.802 29.26 21.609 30.074 L 26.506 34.962 L 37.087 19.082 C 37.723 18.128 39.012 17.876 39.963 18.51 C 40.921 19.146 41.181 20.435 40.545 21.387 Z" fill="#1f1f1f"></path></svg>